<?xml version="1.0" encoding="UTF-8"?>
<svg xmlns="http://www.w3.org/2000/svg" width="800.000" height="600.000" viewBox="0.0 0.0 800.000 600.000" version="1.1">
  <desc>Produce by Acme CAD Converter</desc>
<path d="M227.88 100.63L406.53 100.63"
fill="none" stroke="red" stroke-width="0.5"/>
<path d="M227.88 100.63L406.53 100.63"
fill="none" stroke="red" stroke-width="0.5"/>
<path d="M227.88 100.63L227.88 368.61Z"
fill="none" stroke="black" stroke-width="0.5"/>
<path d="M227.88 100.63L227.88 368.61Z"
fill="none" stroke="red" stroke-width="0.5"/>
<path d="M406.53 100.63L406.53 368.61Z"
fill="none" stroke="red" stroke-width="0.5"/>
<path d="M406.53 100.63L406.53 368.61Z"
fill="none" stroke="red" stroke-width="0.5"/>
<path d="M227.88 368.61L406.53 368.61"
fill="none" stroke="red" stroke-width="0.5"/>
<path d="M227.88 368.61L406.53 368.61"
fill="none" stroke="red" stroke-width="0.5"/>
<path d="M245.3 118.05L389.12 118.05"
fill="none" stroke="red" stroke-width="0.5"/>
<path d="M245.3 351.19L389.12 351.19"
fill="none" stroke="red" stroke-width="0.5"/>
<path d="M245.3 118.05L245.3 351.19Z"
fill="none" stroke="red" stroke-width="0.5"/>
<path d="M389.12 118.05L389.12 351.19Z"
fill="none" stroke="red" stroke-width="0.5"/>
<path d="M258.48 351.19L258.48 368.61Z"
fill="none" stroke="red" stroke-width="0.5"/>
<path d="M260.27 351.19L260.27 368.61Z"
fill="none" stroke="red" stroke-width="0.5"/>
<path d="M316.32 351.19L316.32 368.61Z"
fill="none" stroke="red" stroke-width="0.5"/>
<path d="M318.1 351.19L318.1 368.61Z"
fill="none" stroke="red" stroke-width="0.5"/>
<path d="M374.15 351.19L374.15 368.61Z"
fill="none" stroke="red" stroke-width="0.5"/>
<path d="M375.94 351.19L375.94 368.61Z"
fill="none" stroke="red" stroke-width="0.5"/>
<path d="M388.25 118.13L388.28 118.16"
fill="none" stroke="black" stroke-width="0.5"/>
<path d="M388.28 118.16L388.25 118.18"
fill="none" stroke="black" stroke-width="0.5"/>
<path d="M388.25 118.18L388.23 118.16"
fill="none" stroke="black" stroke-width="0.5"/>
<path d="M388.23 118.16L388.23 118.13Z"
fill="none" stroke="black" stroke-width="0.5"/>
<path d="M388.23 118.13L388.25 118.09"
fill="none" stroke="black" stroke-width="0.5"/>
<path d="M388.25 118.09L388.28 118.07"
fill="none" stroke="black" stroke-width="0.5"/>
<path d="M388.28 118.07L388.32 118.05"
fill="none" stroke="black" stroke-width="0.5"/>
<path d="M388.32 118.05L388.38 118.05"
fill="none" stroke="black" stroke-width="0.5"/>
<path d="M388.38 118.05L388.45 118.07"
fill="none" stroke="black" stroke-width="0.5"/>
<path d="M388.45 118.07L388.47 118.11"
fill="none" stroke="black" stroke-width="0.5"/>
<path d="M388.47 118.11L388.47 118.16Z"
fill="none" stroke="black" stroke-width="0.5"/>
<path d="M388.47 118.16L388.45 118.2"
fill="none" stroke="black" stroke-width="0.5"/>
<path d="M388.45 118.2L388.42 118.22"
fill="none" stroke="black" stroke-width="0.5"/>
<path d="M388.42 118.22L388.38 118.24"
fill="none" stroke="black" stroke-width="0.5"/>
<path d="M388.38 118.24L388.34 118.28"
fill="none" stroke="black" stroke-width="0.5"/>
<path d="M388.34 118.28L388.34 118.35Z"
fill="none" stroke="black" stroke-width="0.5"/>
<path d="M388.34 118.45L388.32 118.48"
fill="none" stroke="black" stroke-width="0.5"/>
<path d="M388.32 118.48L388.34 118.5"
fill="none" stroke="black" stroke-width="0.5"/>
<path d="M388.34 118.5L388.36 118.48"
fill="none" stroke="black" stroke-width="0.5"/>
<path d="M388.36 118.48L388.34 118.45"
fill="none" stroke="black" stroke-width="0.5"/>
<path d="M388.64 118.13L388.66 118.16"
fill="none" stroke="black" stroke-width="0.5"/>
<path d="M388.66 118.16L388.64 118.18"
fill="none" stroke="black" stroke-width="0.5"/>
<path d="M388.64 118.18L388.62 118.16"
fill="none" stroke="black" stroke-width="0.5"/>
<path d="M388.62 118.16L388.62 118.13Z"
fill="none" stroke="black" stroke-width="0.5"/>
<path d="M388.62 118.13L388.64 118.09"
fill="none" stroke="black" stroke-width="0.5"/>
<path d="M388.64 118.09L388.66 118.07"
fill="none" stroke="black" stroke-width="0.5"/>
<path d="M388.66 118.07L388.7 118.05"
fill="none" stroke="black" stroke-width="0.5"/>
<path d="M388.7 118.05L388.76 118.05"
fill="none" stroke="black" stroke-width="0.5"/>
<path d="M388.76 118.05L388.83 118.07"
fill="none" stroke="black" stroke-width="0.5"/>
<path d="M388.83 118.07L388.85 118.11"
fill="none" stroke="black" stroke-width="0.5"/>
<path d="M388.85 118.11L388.85 118.16Z"
fill="none" stroke="black" stroke-width="0.5"/>
<path d="M388.85 118.16L388.83 118.2"
fill="none" stroke="black" stroke-width="0.5"/>
<path d="M388.83 118.2L388.81 118.22"
fill="none" stroke="black" stroke-width="0.5"/>
<path d="M388.81 118.22L388.76 118.24"
fill="none" stroke="black" stroke-width="0.5"/>
<path d="M388.76 118.24L388.72 118.28"
fill="none" stroke="black" stroke-width="0.5"/>
<path d="M388.72 118.28L388.72 118.35Z"
fill="none" stroke="black" stroke-width="0.5"/>
<path d="M388.72 118.45L388.7 118.48"
fill="none" stroke="black" stroke-width="0.5"/>
<path d="M388.7 118.48L388.72 118.5"
fill="none" stroke="black" stroke-width="0.5"/>
<path d="M388.72 118.5L388.74 118.48"
fill="none" stroke="black" stroke-width="0.5"/>
<path d="M388.74 118.48L388.72 118.45"
fill="none" stroke="black" stroke-width="0.5"/>
<path d="M227.88 100.63L406.53 234.62"
fill="none" stroke="red" stroke-width="0.5"/>
<path d="M227.88 368.61L406.53 234.62"
fill="none" stroke="red" stroke-width="0.5"/>
<path d="M225.65 122.96L227.88 122.96"
fill="none" stroke="lime" stroke-width="0.5"/>
<path d="M227.88 122.96L227.88 130.67Z"
fill="none" stroke="lime" stroke-width="0.5"/>
<path d="M227.88 135.13L227.88 142.84Z"
fill="none" stroke="lime" stroke-width="0.5"/>
<path d="M225.65 122.96L225.65 130.67Z"
fill="none" stroke="lime" stroke-width="0.5"/>
<path d="M225.65 135.13L225.65 142.84Z"
fill="none" stroke="lime" stroke-width="0.5"/>
<path d="M225.65 142.84L227.88 142.84"
fill="none" stroke="lime" stroke-width="0.5"/>
<path d="M225.65 189.96L227.88 189.96"
fill="none" stroke="lime" stroke-width="0.5"/>
<path d="M227.88 189.96L227.88 209.83Z"
fill="none" stroke="lime" stroke-width="0.5"/>
<path d="M225.65 189.96L225.65 209.83Z"
fill="none" stroke="lime" stroke-width="0.5"/>
<path d="M225.65 209.83L227.88 209.83"
fill="none" stroke="lime" stroke-width="0.5"/>
<path d="M225.65 326.4L227.88 326.4"
fill="none" stroke="lime" stroke-width="0.5"/>
<path d="M227.88 326.4L227.88 346.28Z"
fill="none" stroke="lime" stroke-width="0.5"/>
<path d="M225.65 326.4L225.65 346.28Z"
fill="none" stroke="lime" stroke-width="0.5"/>
<path d="M225.65 346.28L227.88 346.28"
fill="none" stroke="lime" stroke-width="0.5"/>
<path d="M397.6 287.1L403.19 287.1"
fill="none" stroke="red" stroke-width="0.5"/>
<path d="M403.19 287.1L403.19 302.73Z"
fill="none" stroke="red" stroke-width="0.5"/>
<path d="M397.6 287.1L397.6 302.73Z"
fill="none" stroke="red" stroke-width="0.5"/>
<path d="M397.6 302.73L403.19 302.73"
fill="none" stroke="red" stroke-width="0.5"/>
<path d="M400.95 294.91L400.95 295.36Z"
fill="none" stroke="red" stroke-width="0.5"/>
<path d="M400.51 294.91L400.95 294.91"
fill="none" stroke="red" stroke-width="0.5"/>
<path d="M400.95 294.91L400.95 317.24Z"
fill="none" stroke="red" stroke-width="0.5"/>
<path d="M400.51 294.91L400.51 317.24Z"
fill="none" stroke="red" stroke-width="0.5"/>
<path d="M400.51 317.24L400.95 317.24"
fill="none" stroke="red" stroke-width="0.5"/>
<path d="M397.6 287.1L403.19 287.1"
fill="none" stroke="red" stroke-width="0.5"/>
<path d="M403.19 287.1L403.19 302.73Z"
fill="none" stroke="red" stroke-width="0.5"/>
<path d="M397.6 287.1L397.6 302.73Z"
fill="none" stroke="red" stroke-width="0.5"/>
<path d="M397.6 302.73L403.19 302.73"
fill="none" stroke="red" stroke-width="0.5"/>
<path d="M400.95 294.91L400.95 295.36Z"
fill="none" stroke="red" stroke-width="0.5"/>
<path d="M400.51 294.91L400.95 294.91"
fill="none" stroke="red" stroke-width="0.5"/>
<path d="M400.95 294.91L400.95 317.24Z"
fill="none" stroke="red" stroke-width="0.5"/>
<path d="M400.51 294.91L400.51 317.24Z"
fill="none" stroke="red" stroke-width="0.5"/>
<path d="M400.51 317.24L400.95 317.24"
fill="none" stroke="red" stroke-width="0.5"/>
<path d="M404.3 100.63L404.3 368.61Z"
fill="none" stroke="red" stroke-width="0.5"/>
<path d="M400.28 311.22L406.53 311.22"
fill="none" stroke="red" stroke-width="0.5"/>
<path d="M406.53 311.22L406.53 341.14Z"
fill="none" stroke="red" stroke-width="0.5"/>
<path d="M400.28 311.22L400.28 341.14Z"
fill="none" stroke="red" stroke-width="0.5"/>
<path d="M400.28 341.14L406.53 341.14"
fill="none" stroke="red" stroke-width="0.5"/>
<path d="M397.38 282.07L406.53 282.07"
fill="none" stroke="red" stroke-width="0.5"/>
<path d="M406.53 282.07L406.53 307.75Z"
fill="none" stroke="red" stroke-width="0.5"/>
<path d="M397.38 282.07L397.38 307.75Z"
fill="none" stroke="red" stroke-width="0.5"/>
<path d="M397.38 307.75L406.53 307.75"
fill="none" stroke="red" stroke-width="0.5"/>
<path d="M400.28 159.36L406.53 159.36"
fill="none" stroke="red" stroke-width="0.5"/>
<path d="M406.53 159.36L406.53 189.29Z"
fill="none" stroke="red" stroke-width="0.5"/>
<path d="M400.28 159.36L400.28 189.29Z"
fill="none" stroke="red" stroke-width="0.5"/>
<path d="M400.28 189.29L406.53 189.29"
fill="none" stroke="red" stroke-width="0.5"/>
<path d="M404.3 365.26L271.99 365.26"
fill="none" stroke="red" stroke-width="0.5"/>
</svg>
