<?xml version="1.0" encoding="UTF-8"?>
<svg xmlns="http://www.w3.org/2000/svg" width="800.000" height="600.000" viewBox="0.0 0.0 800.000 600.000" version="1.1">
  <desc>Produce by Acme CAD Converter</desc>
<path d="M153.15 177.04L307.82 177.04"
fill="none" stroke="black" stroke-width="0.5"/>
<path d="M153.15 177.04L307.82 177.04"
fill="none" stroke="black" stroke-width="0.5"/>
<path d="M153.15 177.04L153.15 409.06Z"
fill="none" stroke="black" stroke-width="0.5"/>
<path d="M153.15 177.04L153.15 409.06Z"
fill="none" stroke="black" stroke-width="0.5"/>
<path d="M307.82 177.04L307.82 409.06Z"
fill="none" stroke="black" stroke-width="0.5"/>
<path d="M307.82 177.04L307.82 409.06Z"
fill="none" stroke="black" stroke-width="0.5"/>
<path d="M153.15 409.06L307.82 409.06"
fill="none" stroke="black" stroke-width="0.5"/>
<path d="M153.15 409.06L307.82 409.06"
fill="none" stroke="black" stroke-width="0.5"/>
<path d="M310.49 293.34L310.47 293.3"
fill="none" stroke="black" stroke-width="0.5"/>
<path d="M310.47 293.3L310.41 293.25"
fill="none" stroke="black" stroke-width="0.5"/>
<path d="M310.41 293.25L310.8 293.25"
fill="none" stroke="black" stroke-width="0.5"/>
<path d="M310.5 293.03L310.49 293.03"
fill="none" stroke="black" stroke-width="0.5"/>
<path d="M310.49 293.03L310.45 293.01"
fill="none" stroke="black" stroke-width="0.5"/>
<path d="M310.45 293.01L310.43 292.99"
fill="none" stroke="black" stroke-width="0.5"/>
<path d="M310.43 292.99L310.41 292.95"
fill="none" stroke="black" stroke-width="0.5"/>
<path d="M310.41 292.95L310.41 292.88Z"
fill="none" stroke="black" stroke-width="0.5"/>
<path d="M310.41 292.88L310.43 292.84"
fill="none" stroke="black" stroke-width="0.5"/>
<path d="M310.43 292.84L310.45 292.82"
fill="none" stroke="black" stroke-width="0.5"/>
<path d="M310.45 292.82L310.49 292.81"
fill="none" stroke="black" stroke-width="0.5"/>
<path d="M310.49 292.81L310.52 292.81"
fill="none" stroke="black" stroke-width="0.5"/>
<path d="M310.52 292.81L310.56 292.82"
fill="none" stroke="black" stroke-width="0.5"/>
<path d="M310.56 292.82L310.61 292.86"
fill="none" stroke="black" stroke-width="0.5"/>
<path d="M310.61 292.86L310.8 293.04"
fill="none" stroke="black" stroke-width="0.5"/>
<path d="M310.8 293.04L310.8 292.79Z"
fill="none" stroke="black" stroke-width="0.5"/>
<path d="M310.41 292.57L310.43 292.62"
fill="none" stroke="black" stroke-width="0.5"/>
<path d="M310.43 292.62L310.49 292.66"
fill="none" stroke="black" stroke-width="0.5"/>
<path d="M310.49 292.66L310.58 292.68"
fill="none" stroke="black" stroke-width="0.5"/>
<path d="M310.58 292.68L310.63 292.68"
fill="none" stroke="black" stroke-width="0.5"/>
<path d="M310.63 292.68L310.72 292.66"
fill="none" stroke="black" stroke-width="0.5"/>
<path d="M310.72 292.66L310.78 292.62"
fill="none" stroke="black" stroke-width="0.5"/>
<path d="M310.78 292.62L310.8 292.57"
fill="none" stroke="black" stroke-width="0.5"/>
<path d="M310.8 292.57L310.8 292.53Z"
fill="none" stroke="black" stroke-width="0.5"/>
<path d="M310.8 292.53L310.78 292.47"
fill="none" stroke="black" stroke-width="0.5"/>
<path d="M310.78 292.47L310.72 292.44"
fill="none" stroke="black" stroke-width="0.5"/>
<path d="M310.72 292.44L310.63 292.42"
fill="none" stroke="black" stroke-width="0.5"/>
<path d="M310.63 292.42L310.58 292.42"
fill="none" stroke="black" stroke-width="0.5"/>
<path d="M310.58 292.42L310.49 292.44"
fill="none" stroke="black" stroke-width="0.5"/>
<path d="M310.49 292.44L310.43 292.47"
fill="none" stroke="black" stroke-width="0.5"/>
<path d="M310.43 292.47L310.41 292.53"
fill="none" stroke="black" stroke-width="0.5"/>
<path d="M310.41 292.53L310.41 292.57Z"
fill="none" stroke="black" stroke-width="0.5"/>
<path d="M310.41 292.2L310.43 292.25"
fill="none" stroke="black" stroke-width="0.5"/>
<path d="M310.43 292.25L310.49 292.29"
fill="none" stroke="black" stroke-width="0.5"/>
<path d="M310.49 292.29L310.58 292.31"
fill="none" stroke="black" stroke-width="0.5"/>
<path d="M310.58 292.31L310.63 292.31"
fill="none" stroke="black" stroke-width="0.5"/>
<path d="M310.63 292.31L310.72 292.29"
fill="none" stroke="black" stroke-width="0.5"/>
<path d="M310.72 292.29L310.78 292.25"
fill="none" stroke="black" stroke-width="0.5"/>
<path d="M310.78 292.25L310.8 292.2"
fill="none" stroke="black" stroke-width="0.5"/>
<path d="M310.8 292.2L310.8 292.16Z"
fill="none" stroke="black" stroke-width="0.5"/>
<path d="M310.8 292.16L310.78 292.11"
fill="none" stroke="black" stroke-width="0.5"/>
<path d="M310.78 292.11L310.72 292.07"
fill="none" stroke="black" stroke-width="0.5"/>
<path d="M310.72 292.07L310.63 292.05"
fill="none" stroke="black" stroke-width="0.5"/>
<path d="M310.63 292.05L310.58 292.05"
fill="none" stroke="black" stroke-width="0.5"/>
<path d="M310.58 292.05L310.49 292.07"
fill="none" stroke="black" stroke-width="0.5"/>
<path d="M310.49 292.07L310.43 292.11"
fill="none" stroke="black" stroke-width="0.5"/>
<path d="M310.43 292.11L310.41 292.16"
fill="none" stroke="black" stroke-width="0.5"/>
<path d="M310.41 292.16L310.41 292.2Z"
fill="none" stroke="black" stroke-width="0.5"/>
<path d="M309.52 293.34L309.5 293.3"
fill="none" stroke="black" stroke-width="0.5"/>
<path d="M309.5 293.3L309.45 293.25"
fill="none" stroke="black" stroke-width="0.5"/>
<path d="M309.45 293.25L309.83 293.25"
fill="none" stroke="black" stroke-width="0.5"/>
<path d="M309.54 293.03L309.52 293.03"
fill="none" stroke="black" stroke-width="0.5"/>
<path d="M309.52 293.03L309.48 293.01"
fill="none" stroke="black" stroke-width="0.5"/>
<path d="M309.48 293.01L309.46 292.99"
fill="none" stroke="black" stroke-width="0.5"/>
<path d="M309.46 292.99L309.45 292.95"
fill="none" stroke="black" stroke-width="0.5"/>
<path d="M309.45 292.95L309.45 292.88Z"
fill="none" stroke="black" stroke-width="0.5"/>
<path d="M309.45 292.88L309.46 292.84"
fill="none" stroke="black" stroke-width="0.5"/>
<path d="M309.46 292.84L309.48 292.82"
fill="none" stroke="black" stroke-width="0.5"/>
<path d="M309.48 292.82L309.52 292.81"
fill="none" stroke="black" stroke-width="0.5"/>
<path d="M309.52 292.81L309.56 292.81"
fill="none" stroke="black" stroke-width="0.5"/>
<path d="M309.56 292.81L309.59 292.82"
fill="none" stroke="black" stroke-width="0.5"/>
<path d="M309.59 292.82L309.65 292.86"
fill="none" stroke="black" stroke-width="0.5"/>
<path d="M309.65 292.86L309.83 293.04"
fill="none" stroke="black" stroke-width="0.5"/>
<path d="M309.83 293.04L309.83 292.79Z"
fill="none" stroke="black" stroke-width="0.5"/>
<path d="M309.45 292.57L309.46 292.62"
fill="none" stroke="black" stroke-width="0.5"/>
<path d="M309.46 292.62L309.52 292.66"
fill="none" stroke="black" stroke-width="0.5"/>
<path d="M309.52 292.66L309.61 292.68"
fill="none" stroke="black" stroke-width="0.5"/>
<path d="M309.61 292.68L309.67 292.68"
fill="none" stroke="black" stroke-width="0.5"/>
<path d="M309.67 292.68L309.76 292.66"
fill="none" stroke="black" stroke-width="0.5"/>
<path d="M309.76 292.66L309.81 292.62"
fill="none" stroke="black" stroke-width="0.5"/>
<path d="M309.81 292.62L309.83 292.57"
fill="none" stroke="black" stroke-width="0.5"/>
<path d="M309.83 292.57L309.83 292.53Z"
fill="none" stroke="black" stroke-width="0.5"/>
<path d="M309.83 292.53L309.81 292.47"
fill="none" stroke="black" stroke-width="0.5"/>
<path d="M309.81 292.47L309.76 292.44"
fill="none" stroke="black" stroke-width="0.5"/>
<path d="M309.76 292.44L309.67 292.42"
fill="none" stroke="black" stroke-width="0.5"/>
<path d="M309.67 292.42L309.61 292.42"
fill="none" stroke="black" stroke-width="0.5"/>
<path d="M309.61 292.42L309.52 292.44"
fill="none" stroke="black" stroke-width="0.5"/>
<path d="M309.52 292.44L309.46 292.47"
fill="none" stroke="black" stroke-width="0.5"/>
<path d="M309.46 292.47L309.45 292.53"
fill="none" stroke="black" stroke-width="0.5"/>
<path d="M309.45 292.53L309.45 292.57Z"
fill="none" stroke="black" stroke-width="0.5"/>
<path d="M309.45 292.2L309.46 292.25"
fill="none" stroke="black" stroke-width="0.5"/>
<path d="M309.46 292.25L309.52 292.29"
fill="none" stroke="black" stroke-width="0.5"/>
<path d="M309.52 292.29L309.61 292.31"
fill="none" stroke="black" stroke-width="0.5"/>
<path d="M309.61 292.31L309.67 292.31"
fill="none" stroke="black" stroke-width="0.5"/>
<path d="M309.67 292.31L309.76 292.29"
fill="none" stroke="black" stroke-width="0.5"/>
<path d="M309.76 292.29L309.81 292.25"
fill="none" stroke="black" stroke-width="0.5"/>
<path d="M309.81 292.25L309.83 292.2"
fill="none" stroke="black" stroke-width="0.5"/>
<path d="M309.83 292.2L309.83 292.16Z"
fill="none" stroke="black" stroke-width="0.5"/>
<path d="M309.83 292.16L309.81 292.11"
fill="none" stroke="black" stroke-width="0.5"/>
<path d="M309.81 292.11L309.76 292.07"
fill="none" stroke="black" stroke-width="0.5"/>
<path d="M309.76 292.07L309.67 292.05"
fill="none" stroke="black" stroke-width="0.5"/>
<path d="M309.67 292.05L309.61 292.05"
fill="none" stroke="black" stroke-width="0.5"/>
<path d="M309.61 292.05L309.52 292.07"
fill="none" stroke="black" stroke-width="0.5"/>
<path d="M309.52 292.07L309.46 292.11"
fill="none" stroke="black" stroke-width="0.5"/>
<path d="M309.46 292.11L309.45 292.16"
fill="none" stroke="black" stroke-width="0.5"/>
<path d="M309.45 292.16L309.45 292.2Z"
fill="none" stroke="black" stroke-width="0.5"/>
<path d="M168.23 192.12L292.74 192.12"
fill="none" stroke="black" stroke-width="0.5"/>
<path d="M168.23 393.97L292.74 393.97"
fill="none" stroke="black" stroke-width="0.5"/>
<path d="M168.23 192.12L168.23 393.97Z"
fill="none" stroke="black" stroke-width="0.5"/>
<path d="M292.74 192.12L292.74 393.97Z"
fill="none" stroke="black" stroke-width="0.5"/>
<path d="M168.23 194.33L292.74 194.33"
fill="none" stroke="black" stroke-width="0.5"/>
<path d="M168.23 196.54L292.74 196.54"
fill="none" stroke="black" stroke-width="0.5"/>
<path d="M168.23 198.75L292.74 198.75"
fill="none" stroke="black" stroke-width="0.5"/>
<path d="M168.23 200.96L292.74 200.96"
fill="none" stroke="black" stroke-width="0.5"/>
<path d="M168.23 203.17L292.74 203.17"
fill="none" stroke="black" stroke-width="0.5"/>
<path d="M168.23 205.38L292.74 205.38"
fill="none" stroke="black" stroke-width="0.5"/>
<path d="M168.23 207.59L292.74 207.59"
fill="none" stroke="black" stroke-width="0.5"/>
<path d="M291.99 207.67L292.01 207.68"
fill="none" stroke="black" stroke-width="0.5"/>
<path d="M292.01 207.68L291.99 207.7"
fill="none" stroke="black" stroke-width="0.5"/>
<path d="M291.99 207.7L291.97 207.68"
fill="none" stroke="black" stroke-width="0.5"/>
<path d="M291.97 207.68L291.97 207.67Z"
fill="none" stroke="black" stroke-width="0.5"/>
<path d="M291.97 207.67L291.99 207.63"
fill="none" stroke="black" stroke-width="0.5"/>
<path d="M291.99 207.63L292.01 207.61"
fill="none" stroke="black" stroke-width="0.5"/>
<path d="M292.01 207.61L292.05 207.59"
fill="none" stroke="black" stroke-width="0.5"/>
<path d="M292.05 207.59L292.1 207.59"
fill="none" stroke="black" stroke-width="0.5"/>
<path d="M292.1 207.59L292.16 207.61"
fill="none" stroke="black" stroke-width="0.5"/>
<path d="M292.16 207.61L292.18 207.65"
fill="none" stroke="black" stroke-width="0.5"/>
<path d="M292.18 207.65L292.18 207.68Z"
fill="none" stroke="black" stroke-width="0.5"/>
<path d="M292.18 207.68L292.16 207.72"
fill="none" stroke="black" stroke-width="0.5"/>
<path d="M292.16 207.72L292.14 207.74"
fill="none" stroke="black" stroke-width="0.5"/>
<path d="M292.14 207.74L292.1 207.76"
fill="none" stroke="black" stroke-width="0.5"/>
<path d="M292.1 207.76L292.07 207.79"
fill="none" stroke="black" stroke-width="0.5"/>
<path d="M292.07 207.79L292.07 207.85Z"
fill="none" stroke="black" stroke-width="0.5"/>
<path d="M292.07 207.94L292.05 207.96"
fill="none" stroke="black" stroke-width="0.5"/>
<path d="M292.05 207.96L292.07 207.98"
fill="none" stroke="black" stroke-width="0.5"/>
<path d="M292.07 207.98L292.08 207.96"
fill="none" stroke="black" stroke-width="0.5"/>
<path d="M292.08 207.96L292.07 207.94"
fill="none" stroke="black" stroke-width="0.5"/>
<path d="M292.32 207.67L292.34 207.68"
fill="none" stroke="black" stroke-width="0.5"/>
<path d="M292.34 207.68L292.32 207.7"
fill="none" stroke="black" stroke-width="0.5"/>
<path d="M292.32 207.7L292.31 207.68"
fill="none" stroke="black" stroke-width="0.5"/>
<path d="M292.31 207.68L292.31 207.67Z"
fill="none" stroke="black" stroke-width="0.5"/>
<path d="M292.31 207.67L292.32 207.63"
fill="none" stroke="black" stroke-width="0.5"/>
<path d="M292.32 207.63L292.34 207.61"
fill="none" stroke="black" stroke-width="0.5"/>
<path d="M292.34 207.61L292.38 207.59"
fill="none" stroke="black" stroke-width="0.5"/>
<path d="M292.38 207.59L292.43 207.59"
fill="none" stroke="black" stroke-width="0.5"/>
<path d="M292.43 207.59L292.49 207.61"
fill="none" stroke="black" stroke-width="0.5"/>
<path d="M292.49 207.61L292.51 207.65"
fill="none" stroke="black" stroke-width="0.5"/>
<path d="M292.51 207.65L292.51 207.68Z"
fill="none" stroke="black" stroke-width="0.5"/>
<path d="M292.51 207.68L292.49 207.72"
fill="none" stroke="black" stroke-width="0.5"/>
<path d="M292.49 207.72L292.47 207.74"
fill="none" stroke="black" stroke-width="0.5"/>
<path d="M292.47 207.74L292.43 207.76"
fill="none" stroke="black" stroke-width="0.5"/>
<path d="M292.43 207.76L292.4 207.79"
fill="none" stroke="black" stroke-width="0.5"/>
<path d="M292.4 207.79L292.4 207.85Z"
fill="none" stroke="black" stroke-width="0.5"/>
<path d="M292.4 207.94L292.38 207.96"
fill="none" stroke="black" stroke-width="0.5"/>
<path d="M292.38 207.96L292.4 207.98"
fill="none" stroke="black" stroke-width="0.5"/>
<path d="M292.4 207.98L292.42 207.96"
fill="none" stroke="black" stroke-width="0.5"/>
<path d="M292.42 207.96L292.4 207.94"
fill="none" stroke="black" stroke-width="0.5"/>
<path d="M169 393.76L169 393.38Z"
fill="none" stroke="black" stroke-width="0.5"/>
<path d="M169 393.38L169.17 393.38"
fill="none" stroke="black" stroke-width="0.5"/>
<path d="M169.17 393.38L169.22 393.39"
fill="none" stroke="black" stroke-width="0.5"/>
<path d="M169.22 393.39L169.24 393.41"
fill="none" stroke="black" stroke-width="0.5"/>
<path d="M169.24 393.41L169.26 393.45"
fill="none" stroke="black" stroke-width="0.5"/>
<path d="M169.26 393.45L169.26 393.49Z"
fill="none" stroke="black" stroke-width="0.5"/>
<path d="M169.26 393.49L169.24 393.52"
fill="none" stroke="black" stroke-width="0.5"/>
<path d="M169.24 393.52L169.22 393.54"
fill="none" stroke="black" stroke-width="0.5"/>
<path d="M169.22 393.54L169.17 393.56"
fill="none" stroke="black" stroke-width="0.5"/>
<path d="M169.17 393.56L169 393.56"
fill="none" stroke="black" stroke-width="0.5"/>
<path d="M169.13 393.56L169.26 393.76"
fill="none" stroke="black" stroke-width="0.5"/>
<path d="M169.39 393.76L169.53 393.38"
fill="none" stroke="black" stroke-width="0.5"/>
<path d="M169.53 393.38L169.68 393.76"
fill="none" stroke="black" stroke-width="0.5"/>
<path d="M169.44 393.63L169.63 393.63"
fill="none" stroke="black" stroke-width="0.5"/>
<path d="M170.01 393.38L169.83 393.38"
fill="none" stroke="black" stroke-width="0.5"/>
<path d="M169.83 393.38L169.81 393.54"
fill="none" stroke="black" stroke-width="0.5"/>
<path d="M169.81 393.54L169.83 393.52"
fill="none" stroke="black" stroke-width="0.5"/>
<path d="M169.83 393.52L169.88 393.51"
fill="none" stroke="black" stroke-width="0.5"/>
<path d="M169.88 393.51L169.94 393.51"
fill="none" stroke="black" stroke-width="0.5"/>
<path d="M169.94 393.51L169.99 393.52"
fill="none" stroke="black" stroke-width="0.5"/>
<path d="M169.99 393.52L170.03 393.56"
fill="none" stroke="black" stroke-width="0.5"/>
<path d="M170.03 393.56L170.05 393.62"
fill="none" stroke="black" stroke-width="0.5"/>
<path d="M170.05 393.62L170.05 393.65Z"
fill="none" stroke="black" stroke-width="0.5"/>
<path d="M170.05 393.65L170.03 393.71"
fill="none" stroke="black" stroke-width="0.5"/>
<path d="M170.03 393.71L169.99 393.74"
fill="none" stroke="black" stroke-width="0.5"/>
<path d="M169.99 393.74L169.94 393.76"
fill="none" stroke="black" stroke-width="0.5"/>
<path d="M169.94 393.76L169.88 393.76"
fill="none" stroke="black" stroke-width="0.5"/>
<path d="M169.88 393.76L169.83 393.74"
fill="none" stroke="black" stroke-width="0.5"/>
<path d="M169.83 393.74L169.81 393.73"
fill="none" stroke="black" stroke-width="0.5"/>
<path d="M169.81 393.73L169.79 393.69"
fill="none" stroke="black" stroke-width="0.5"/>
<path d="M170.38 393.43L170.36 393.39"
fill="none" stroke="black" stroke-width="0.5"/>
<path d="M170.36 393.39L170.31 393.38"
fill="none" stroke="black" stroke-width="0.5"/>
<path d="M170.31 393.38L170.27 393.38"
fill="none" stroke="black" stroke-width="0.5"/>
<path d="M170.27 393.38L170.21 393.39"
fill="none" stroke="black" stroke-width="0.5"/>
<path d="M170.21 393.39L170.18 393.45"
fill="none" stroke="black" stroke-width="0.5"/>
<path d="M170.18 393.45L170.16 393.54"
fill="none" stroke="black" stroke-width="0.5"/>
<path d="M170.16 393.54L170.16 393.63Z"
fill="none" stroke="black" stroke-width="0.5"/>
<path d="M170.16 393.63L170.18 393.71"
fill="none" stroke="black" stroke-width="0.5"/>
<path d="M170.18 393.71L170.21 393.74"
fill="none" stroke="black" stroke-width="0.5"/>
<path d="M170.21 393.74L170.27 393.76"
fill="none" stroke="black" stroke-width="0.5"/>
<path d="M170.27 393.76L170.29 393.76"
fill="none" stroke="black" stroke-width="0.5"/>
<path d="M170.29 393.76L170.34 393.74"
fill="none" stroke="black" stroke-width="0.5"/>
<path d="M170.34 393.74L170.38 393.71"
fill="none" stroke="black" stroke-width="0.5"/>
<path d="M170.38 393.71L170.4 393.65"
fill="none" stroke="black" stroke-width="0.5"/>
<path d="M170.4 393.65L170.4 393.63Z"
fill="none" stroke="black" stroke-width="0.5"/>
<path d="M170.4 393.63L170.38 393.58"
fill="none" stroke="black" stroke-width="0.5"/>
<path d="M170.38 393.58L170.34 393.54"
fill="none" stroke="black" stroke-width="0.5"/>
<path d="M170.34 393.54L170.29 393.52"
fill="none" stroke="black" stroke-width="0.5"/>
<path d="M170.29 393.52L170.27 393.52"
fill="none" stroke="black" stroke-width="0.5"/>
<path d="M170.27 393.52L170.21 393.54"
fill="none" stroke="black" stroke-width="0.5"/>
<path d="M170.21 393.54L170.18 393.58"
fill="none" stroke="black" stroke-width="0.5"/>
<path d="M170.18 393.58L170.16 393.63"
fill="none" stroke="black" stroke-width="0.5"/>
<path d="M170.53 393.76L170.79 393.38"
fill="none" stroke="black" stroke-width="0.5"/>
<path d="M170.53 393.38L170.79 393.76"
fill="none" stroke="black" stroke-width="0.5"/>
<path d="M170.9 393.38L171.15 393.38"
fill="none" stroke="black" stroke-width="0.5"/>
<path d="M171.15 393.38L170.97 393.76"
fill="none" stroke="black" stroke-width="0.5"/>
<path d="M171.36 393.38L171.3 393.39"
fill="none" stroke="black" stroke-width="0.5"/>
<path d="M171.3 393.39L171.28 393.43"
fill="none" stroke="black" stroke-width="0.5"/>
<path d="M171.28 393.43L171.28 393.47Z"
fill="none" stroke="black" stroke-width="0.5"/>
<path d="M171.28 393.47L171.3 393.51"
fill="none" stroke="black" stroke-width="0.5"/>
<path d="M171.3 393.51L171.34 393.52"
fill="none" stroke="black" stroke-width="0.5"/>
<path d="M171.34 393.52L171.41 393.54"
fill="none" stroke="black" stroke-width="0.5"/>
<path d="M171.41 393.54L171.47 393.56"
fill="none" stroke="black" stroke-width="0.5"/>
<path d="M171.47 393.56L171.5 393.6"
fill="none" stroke="black" stroke-width="0.5"/>
<path d="M171.5 393.6L171.52 393.63"
fill="none" stroke="black" stroke-width="0.5"/>
<path d="M171.52 393.63L171.52 393.69Z"
fill="none" stroke="black" stroke-width="0.5"/>
<path d="M171.52 393.69L171.5 393.73"
fill="none" stroke="black" stroke-width="0.5"/>
<path d="M171.5 393.73L171.49 393.74"
fill="none" stroke="black" stroke-width="0.5"/>
<path d="M171.49 393.74L171.43 393.76"
fill="none" stroke="black" stroke-width="0.5"/>
<path d="M171.43 393.76L171.36 393.76"
fill="none" stroke="black" stroke-width="0.5"/>
<path d="M171.36 393.76L171.3 393.74"
fill="none" stroke="black" stroke-width="0.5"/>
<path d="M171.3 393.74L171.28 393.73"
fill="none" stroke="black" stroke-width="0.5"/>
<path d="M171.28 393.73L171.26 393.69"
fill="none" stroke="black" stroke-width="0.5"/>
<path d="M171.26 393.69L171.26 393.63Z"
fill="none" stroke="black" stroke-width="0.5"/>
<path d="M171.26 393.63L171.28 393.6"
fill="none" stroke="black" stroke-width="0.5"/>
<path d="M171.28 393.6L171.32 393.56"
fill="none" stroke="black" stroke-width="0.5"/>
<path d="M171.32 393.56L171.37 393.54"
fill="none" stroke="black" stroke-width="0.5"/>
<path d="M171.37 393.54L171.45 393.52"
fill="none" stroke="black" stroke-width="0.5"/>
<path d="M171.45 393.52L171.49 393.51"
fill="none" stroke="black" stroke-width="0.5"/>
<path d="M171.49 393.51L171.5 393.47"
fill="none" stroke="black" stroke-width="0.5"/>
<path d="M171.5 393.47L171.5 393.43Z"
fill="none" stroke="black" stroke-width="0.5"/>
<path d="M171.5 393.43L171.49 393.39"
fill="none" stroke="black" stroke-width="0.5"/>
<path d="M171.49 393.39L171.43 393.38"
fill="none" stroke="black" stroke-width="0.5"/>
<path d="M171.43 393.38L171.36 393.38"
fill="none" stroke="black" stroke-width="0.5"/>
<path d="M171.67 393.74L171.65 393.76"
fill="none" stroke="black" stroke-width="0.5"/>
<path d="M171.65 393.76L171.63 393.74"
fill="none" stroke="black" stroke-width="0.5"/>
<path d="M171.63 393.74L171.65 393.73"
fill="none" stroke="black" stroke-width="0.5"/>
<path d="M171.65 393.73L171.67 393.74"
fill="none" stroke="black" stroke-width="0.5"/>
<path d="M171.67 393.74L171.67 393.78Z"
fill="none" stroke="black" stroke-width="0.5"/>
<path d="M171.67 393.78L171.65 393.82"
fill="none" stroke="black" stroke-width="0.5"/>
<path d="M171.65 393.82L171.63 393.84"
fill="none" stroke="black" stroke-width="0.5"/>
<path d="M172.26 393.38L172.2 393.39"
fill="none" stroke="black" stroke-width="0.5"/>
<path d="M172.2 393.39L172.18 393.43"
fill="none" stroke="black" stroke-width="0.5"/>
<path d="M172.18 393.43L172.18 393.47Z"
fill="none" stroke="black" stroke-width="0.5"/>
<path d="M172.18 393.47L172.2 393.51"
fill="none" stroke="black" stroke-width="0.5"/>
<path d="M172.2 393.51L172.24 393.52"
fill="none" stroke="black" stroke-width="0.5"/>
<path d="M172.24 393.52L172.31 393.54"
fill="none" stroke="black" stroke-width="0.5"/>
<path d="M172.31 393.54L172.37 393.56"
fill="none" stroke="black" stroke-width="0.5"/>
<path d="M172.37 393.56L172.41 393.6"
fill="none" stroke="black" stroke-width="0.5"/>
<path d="M172.41 393.6L172.42 393.63"
fill="none" stroke="black" stroke-width="0.5"/>
<path d="M172.42 393.63L172.42 393.69Z"
fill="none" stroke="black" stroke-width="0.5"/>
<path d="M172.42 393.69L172.41 393.73"
fill="none" stroke="black" stroke-width="0.5"/>
<path d="M172.41 393.73L172.39 393.74"
fill="none" stroke="black" stroke-width="0.5"/>
<path d="M172.39 393.74L172.33 393.76"
fill="none" stroke="black" stroke-width="0.5"/>
<path d="M172.33 393.76L172.26 393.76"
fill="none" stroke="black" stroke-width="0.5"/>
<path d="M172.26 393.76L172.2 393.74"
fill="none" stroke="black" stroke-width="0.5"/>
<path d="M172.2 393.74L172.18 393.73"
fill="none" stroke="black" stroke-width="0.5"/>
<path d="M172.18 393.73L172.17 393.69"
fill="none" stroke="black" stroke-width="0.5"/>
<path d="M172.17 393.69L172.17 393.63Z"
fill="none" stroke="black" stroke-width="0.5"/>
<path d="M172.17 393.63L172.18 393.6"
fill="none" stroke="black" stroke-width="0.5"/>
<path d="M172.18 393.6L172.22 393.56"
fill="none" stroke="black" stroke-width="0.5"/>
<path d="M172.22 393.56L172.28 393.54"
fill="none" stroke="black" stroke-width="0.5"/>
<path d="M172.28 393.54L172.35 393.52"
fill="none" stroke="black" stroke-width="0.5"/>
<path d="M172.35 393.52L172.39 393.51"
fill="none" stroke="black" stroke-width="0.5"/>
<path d="M172.39 393.51L172.41 393.47"
fill="none" stroke="black" stroke-width="0.5"/>
<path d="M172.41 393.47L172.41 393.43Z"
fill="none" stroke="black" stroke-width="0.5"/>
<path d="M172.41 393.43L172.39 393.39"
fill="none" stroke="black" stroke-width="0.5"/>
<path d="M172.39 393.39L172.33 393.38"
fill="none" stroke="black" stroke-width="0.5"/>
<path d="M172.33 393.38L172.26 393.38"
fill="none" stroke="black" stroke-width="0.5"/>
<path d="M172.65 393.38L172.59 393.39"
fill="none" stroke="black" stroke-width="0.5"/>
<path d="M172.59 393.39L172.55 393.45"
fill="none" stroke="black" stroke-width="0.5"/>
<path d="M172.55 393.45L172.53 393.54"
fill="none" stroke="black" stroke-width="0.5"/>
<path d="M172.53 393.54L172.53 393.6Z"
fill="none" stroke="black" stroke-width="0.5"/>
<path d="M172.53 393.6L172.55 393.69"
fill="none" stroke="black" stroke-width="0.5"/>
<path d="M172.55 393.69L172.59 393.74"
fill="none" stroke="black" stroke-width="0.5"/>
<path d="M172.59 393.74L172.65 393.76"
fill="none" stroke="black" stroke-width="0.5"/>
<path d="M172.65 393.76L172.68 393.76"
fill="none" stroke="black" stroke-width="0.5"/>
<path d="M172.68 393.76L172.74 393.74"
fill="none" stroke="black" stroke-width="0.5"/>
<path d="M172.74 393.74L172.77 393.69"
fill="none" stroke="black" stroke-width="0.5"/>
<path d="M172.77 393.69L172.79 393.6"
fill="none" stroke="black" stroke-width="0.5"/>
<path d="M172.79 393.6L172.79 393.54Z"
fill="none" stroke="black" stroke-width="0.5"/>
<path d="M172.79 393.54L172.77 393.45"
fill="none" stroke="black" stroke-width="0.5"/>
<path d="M172.77 393.45L172.74 393.39"
fill="none" stroke="black" stroke-width="0.5"/>
<path d="M172.74 393.39L172.68 393.38"
fill="none" stroke="black" stroke-width="0.5"/>
<path d="M172.68 393.38L172.65 393.38"
fill="none" stroke="black" stroke-width="0.5"/>
<path d="M173.01 393.38L172.96 393.39"
fill="none" stroke="black" stroke-width="0.5"/>
<path d="M172.96 393.39L172.92 393.45"
fill="none" stroke="black" stroke-width="0.5"/>
<path d="M172.92 393.45L172.9 393.54"
fill="none" stroke="black" stroke-width="0.5"/>
<path d="M172.9 393.54L172.9 393.6Z"
fill="none" stroke="black" stroke-width="0.5"/>
<path d="M172.9 393.6L172.92 393.69"
fill="none" stroke="black" stroke-width="0.5"/>
<path d="M172.92 393.69L172.96 393.74"
fill="none" stroke="black" stroke-width="0.5"/>
<path d="M172.96 393.74L173.01 393.76"
fill="none" stroke="black" stroke-width="0.5"/>
<path d="M173.01 393.76L173.05 393.76"
fill="none" stroke="black" stroke-width="0.5"/>
<path d="M173.05 393.76L173.11 393.74"
fill="none" stroke="black" stroke-width="0.5"/>
<path d="M173.11 393.74L173.14 393.69"
fill="none" stroke="black" stroke-width="0.5"/>
<path d="M173.14 393.69L173.16 393.6"
fill="none" stroke="black" stroke-width="0.5"/>
<path d="M173.16 393.6L173.16 393.54Z"
fill="none" stroke="black" stroke-width="0.5"/>
<path d="M173.16 393.54L173.14 393.45"
fill="none" stroke="black" stroke-width="0.5"/>
<path d="M173.14 393.45L173.11 393.39"
fill="none" stroke="black" stroke-width="0.5"/>
<path d="M173.11 393.39L173.05 393.38"
fill="none" stroke="black" stroke-width="0.5"/>
<path d="M173.05 393.38L173.01 393.38"
fill="none" stroke="black" stroke-width="0.5"/>
<path d="M173.27 393.76L173.47 393.51"
fill="none" stroke="black" stroke-width="0.5"/>
<path d="M173.47 393.76L173.27 393.51"
fill="none" stroke="black" stroke-width="0.5"/>
<path d="M173.58 393.45L173.62 393.43"
fill="none" stroke="black" stroke-width="0.5"/>
<path d="M173.62 393.43L173.68 393.38"
fill="none" stroke="black" stroke-width="0.5"/>
<path d="M173.68 393.38L173.68 393.76Z"
fill="none" stroke="black" stroke-width="0.5"/>
<path d="M173.9 393.47L173.9 393.45Z"
fill="none" stroke="black" stroke-width="0.5"/>
<path d="M173.9 393.45L173.92 393.41"
fill="none" stroke="black" stroke-width="0.5"/>
<path d="M173.92 393.41L173.93 393.39"
fill="none" stroke="black" stroke-width="0.5"/>
<path d="M173.93 393.39L173.97 393.38"
fill="none" stroke="black" stroke-width="0.5"/>
<path d="M173.97 393.38L174.04 393.38"
fill="none" stroke="black" stroke-width="0.5"/>
<path d="M174.04 393.38L174.08 393.39"
fill="none" stroke="black" stroke-width="0.5"/>
<path d="M174.08 393.39L174.1 393.41"
fill="none" stroke="black" stroke-width="0.5"/>
<path d="M174.1 393.41L174.12 393.45"
fill="none" stroke="black" stroke-width="0.5"/>
<path d="M174.12 393.45L174.12 393.49Z"
fill="none" stroke="black" stroke-width="0.5"/>
<path d="M174.12 393.49L174.1 393.52"
fill="none" stroke="black" stroke-width="0.5"/>
<path d="M174.1 393.52L174.06 393.58"
fill="none" stroke="black" stroke-width="0.5"/>
<path d="M174.06 393.58L173.88 393.76"
fill="none" stroke="black" stroke-width="0.5"/>
<path d="M173.88 393.76L174.14 393.76"
fill="none" stroke="black" stroke-width="0.5"/>
<path d="M174.36 393.38L174.3 393.39"
fill="none" stroke="black" stroke-width="0.5"/>
<path d="M174.3 393.39L174.27 393.45"
fill="none" stroke="black" stroke-width="0.5"/>
<path d="M174.27 393.45L174.25 393.54"
fill="none" stroke="black" stroke-width="0.5"/>
<path d="M174.25 393.54L174.25 393.6Z"
fill="none" stroke="black" stroke-width="0.5"/>
<path d="M174.25 393.6L174.27 393.69"
fill="none" stroke="black" stroke-width="0.5"/>
<path d="M174.27 393.69L174.3 393.74"
fill="none" stroke="black" stroke-width="0.5"/>
<path d="M174.3 393.74L174.36 393.76"
fill="none" stroke="black" stroke-width="0.5"/>
<path d="M174.36 393.76L174.39 393.76"
fill="none" stroke="black" stroke-width="0.5"/>
<path d="M174.39 393.76L174.45 393.74"
fill="none" stroke="black" stroke-width="0.5"/>
<path d="M174.45 393.74L174.49 393.69"
fill="none" stroke="black" stroke-width="0.5"/>
<path d="M174.49 393.69L174.5 393.6"
fill="none" stroke="black" stroke-width="0.5"/>
<path d="M174.5 393.6L174.5 393.54Z"
fill="none" stroke="black" stroke-width="0.5"/>
<path d="M174.5 393.54L174.49 393.45"
fill="none" stroke="black" stroke-width="0.5"/>
<path d="M174.49 393.45L174.45 393.39"
fill="none" stroke="black" stroke-width="0.5"/>
<path d="M174.45 393.39L174.39 393.38"
fill="none" stroke="black" stroke-width="0.5"/>
<path d="M174.39 393.38L174.36 393.38"
fill="none" stroke="black" stroke-width="0.5"/>
<path d="M174.73 393.38L174.67 393.39"
fill="none" stroke="black" stroke-width="0.5"/>
<path d="M174.67 393.39L174.63 393.45"
fill="none" stroke="black" stroke-width="0.5"/>
<path d="M174.63 393.45L174.62 393.54"
fill="none" stroke="black" stroke-width="0.5"/>
<path d="M174.62 393.54L174.62 393.6Z"
fill="none" stroke="black" stroke-width="0.5"/>
<path d="M174.62 393.6L174.63 393.69"
fill="none" stroke="black" stroke-width="0.5"/>
<path d="M174.63 393.69L174.67 393.74"
fill="none" stroke="black" stroke-width="0.5"/>
<path d="M174.67 393.74L174.73 393.76"
fill="none" stroke="black" stroke-width="0.5"/>
<path d="M174.73 393.76L174.76 393.76"
fill="none" stroke="black" stroke-width="0.5"/>
<path d="M174.76 393.76L174.82 393.74"
fill="none" stroke="black" stroke-width="0.5"/>
<path d="M174.82 393.74L174.85 393.69"
fill="none" stroke="black" stroke-width="0.5"/>
<path d="M174.85 393.69L174.87 393.6"
fill="none" stroke="black" stroke-width="0.5"/>
<path d="M174.87 393.6L174.87 393.54Z"
fill="none" stroke="black" stroke-width="0.5"/>
<path d="M174.87 393.54L174.85 393.45"
fill="none" stroke="black" stroke-width="0.5"/>
<path d="M174.85 393.45L174.82 393.39"
fill="none" stroke="black" stroke-width="0.5"/>
<path d="M174.82 393.39L174.76 393.38"
fill="none" stroke="black" stroke-width="0.5"/>
<path d="M174.76 393.38L174.73 393.38"
fill="none" stroke="black" stroke-width="0.5"/>
<path d="M153.15 177.04L307.82 293.05"
fill="none" stroke="black" stroke-width="0.5"/>
<path d="M153.15 409.06L307.82 293.05"
fill="none" stroke="black" stroke-width="0.5"/>
<path d="M151.21 196.38L153.15 196.38"
fill="none" stroke="blue" stroke-width="0.5"/>
<path d="M153.15 196.38L153.15 203.05Z"
fill="none" stroke="blue" stroke-width="0.5"/>
<path d="M153.15 206.92L153.15 213.59Z"
fill="none" stroke="blue" stroke-width="0.5"/>
<path d="M151.21 196.38L151.21 203.05Z"
fill="none" stroke="blue" stroke-width="0.5"/>
<path d="M151.21 206.92L151.21 213.59Z"
fill="none" stroke="blue" stroke-width="0.5"/>
<path d="M151.21 213.59L153.15 213.59"
fill="none" stroke="blue" stroke-width="0.5"/>
<path d="M151.21 254.38L153.15 254.38"
fill="none" stroke="black" stroke-width="0.5"/>
<path d="M153.15 254.38L153.15 271.59Z"
fill="none" stroke="black" stroke-width="0.5"/>
<path d="M151.21 254.38L151.21 271.59Z"
fill="none" stroke="black" stroke-width="0.5"/>
<path d="M151.21 271.59L153.15 271.59"
fill="none" stroke="black" stroke-width="0.5"/>
<path d="M151.21 372.51L153.15 372.51"
fill="none" stroke="black" stroke-width="0.5"/>
<path d="M153.15 372.51L153.15 389.72Z"
fill="none" stroke="black" stroke-width="0.5"/>
<path d="M151.21 372.51L151.21 389.72Z"
fill="none" stroke="black" stroke-width="0.5"/>
<path d="M151.21 389.72L153.15 389.72"
fill="none" stroke="black" stroke-width="0.5"/>
</svg>
